<svg xmlns="http://www.w3.org/2000/svg" width="90.492" height="67.745" viewBox="0 0 90.492 67.745">
  <path fill="white" id="Analytics-Icon-SVG-sfp3df" d="M1.375,67.745A1.352,1.352,0,0,1,0,66.411a1.387,1.387,0,0,1,1.375-1.374H89.117a1.387,1.387,0,0,1,1.375,1.374,1.352,1.352,0,0,1-1.375,1.334Zm78.62-6.25a1.4,1.4,0,0,1-1.375-1.417V17.332a1.36,1.36,0,0,1,1.375-1.375h9.124a1.326,1.326,0,0,1,1.333,1.375V60.079A1.363,1.363,0,0,1,89.119,61.5ZM81.369,58.7H87.7V18.665H81.369ZM60.329,61.5a1.4,1.4,0,0,1-1.374-1.416V32.373a1.379,1.379,0,0,1,1.374-1.333h9.124a1.379,1.379,0,0,1,1.375,1.333V60.08A1.4,1.4,0,0,1,69.453,61.5Zm1.375-2.75h6.332V33.79H61.7Zm-21,2.75a1.37,1.37,0,0,1-1.374-1.417V25.54a1.326,1.326,0,0,1,1.374-1.333h9.083a1.352,1.352,0,0,1,1.375,1.333V60.079A1.4,1.4,0,0,1,49.788,61.5ZM42.08,58.7h6.333V26.915H42.08ZM21.04,61.5a1.4,1.4,0,0,1-1.375-1.417V43.372A1.361,1.361,0,0,1,21.04,42h9.083A1.36,1.36,0,0,1,31.5,43.372V60.079A1.4,1.4,0,0,1,30.123,61.5ZM22.415,58.7h6.332V44.747H22.415ZM1.375,61.5A1.4,1.4,0,0,1,0,60.079V39.164a1.415,1.415,0,0,1,1.375-1.374h9.082a1.386,1.386,0,0,1,1.375,1.374V60.079A1.37,1.37,0,0,1,10.457,61.5Zm1.374-2.75H9.083V40.58H2.75ZM19.665,32.164l-8.416-1.75a5.9,5.9,0,1,1,.583-2.708l8.375,1.75a6.029,6.029,0,0,1,5.375-3.416,5.794,5.794,0,0,1,3.333,1.083L40.08,16.957a5.292,5.292,0,0,1-.75-2.792,5.916,5.916,0,0,1,11.832,0l-.084.583,8.833,3.083a5.79,5.79,0,0,1,4.958-2.708,5.547,5.547,0,0,1,3.708,1.333L79.16,8.332a5.158,5.158,0,0,1-.541-2.417,5.916,5.916,0,1,1,5.916,5.917A5.624,5.624,0,0,1,80.826,10.5L70.285,18.581a6.771,6.771,0,0,1,.5,2.417,5.916,5.916,0,1,1-11.832,0l.083-.583L50.2,17.332a6.034,6.034,0,0,1-4.958,2.75,5.665,5.665,0,0,1-3.333-1.041L30.748,29.122a6.118,6.118,0,0,1,.75,2.833,5.918,5.918,0,0,1-11.832.209Zm2.75-.209a3.167,3.167,0,1,0,3.167-3.125A3.175,3.175,0,0,0,22.415,31.955ZM2.75,27.873a3.167,3.167,0,0,0,6.333,0,3.2,3.2,0,0,0-3.166-3.208A3.2,3.2,0,0,0,2.75,27.873ZM61.7,21a3.2,3.2,0,0,0,3.166,3.208A3.237,3.237,0,0,0,68.078,21a3.2,3.2,0,0,0-3.209-3.166A3.165,3.165,0,0,0,61.7,21ZM42.038,14.165a3.2,3.2,0,0,0,3.208,3.167,3.165,3.165,0,0,0,3.167-3.167,3.2,3.2,0,0,0-3.167-3.208A3.236,3.236,0,0,0,42.038,14.165Zm39.33-8.249A3.166,3.166,0,1,0,84.534,2.75,3.174,3.174,0,0,0,81.368,5.916Z"/>
</svg>
